<?xml version="1.0" encoding="iso-8859-1"?>
<!-- Generator: Adobe Illustrator 19.0.0, SVG Export Plug-In . SVG Version: 6.00 Build 0)  -->
<svg version="1.1" id="Layer_1" xmlns="http://www.w3.org/2000/svg" xmlns:xlink="http://www.w3.org/1999/xlink" x="0px" y="0px"
	 viewBox="0 0 488 488" style="enable-background:new 0 0 488 488;" xml:space="preserve">
<g>
	<g>
		<path d="M416.4,71.6L416.4,71.6C370.2,25.4,309,0,244,0S117.8,25.4,71.6,71.6C25.4,117.8,0,179,0,244s25.4,126.2,71.6,172.4
			C117.8,462.6,179,488,244,488s126.2-25.4,172.4-71.6C462.6,370.2,488,309,488,244S462.6,117.8,416.4,71.6z M244,20L244,20
			c110.9,0,203.2,81,220.9,186.9l-71.3-71.3c-2-2-4.7-3-7.5-2.9s-5.4,1.4-7.2,3.6L317.1,210l-65.6-74c-1.9-2.1-4.6-3.4-7.5-3.4
			c-2.9,0-5.6,1.2-7.5,3.4L169,212.1l-70.1-76.2c-1.9-2.1-4.6-3.3-7.4-3.2c-2.8,0-5.5,1.2-7.4,3.4l-60.5,68.2
			C42.4,99.6,134.1,20,244,20z M397.5,167.8l-11.1,11.1l-9.5-9.2l10.3-12.3L397.5,167.8z M304.1,225.4l-20.3,24.3l-32.7-33.3
			c-1.9-1.9-4.5-3-7.1-3c-2.6,0-5.3,1.1-7.1,3l-33,33.6l-21.3-23.1l61.4-69.2L304.1,225.4z M102.1,168.9l-10.6,10.2l-10.2-9.8
			l10.4-11.7L102.1,168.9z M19.8,244c0.2-2,0.2-3.9,0.3-5.9l0,0c0.2-0.2,0.3-0.3,0.4-0.5L68,184.1l16.6,16c1.9,1.9,4.4,2.8,6.9,2.8
			s5-0.9,6.9-2.8l17.1-16.5l40,43.5l-109,122.8C29.5,318.3,19.8,282.3,19.8,244z M244,468c-77.7,0-146.3-39.8-186.5-100.1L169.3,242
			l27,29.4c1.9,2,4.5,3.2,7.2,3.2s5.4-1,7.3-3l33.3-33.9l33.3,33.9c1.9,1.9,4.5,3,7.1,3c0.1,0,0.3,0,0.4,0c2.8-0.1,5.5-1.4,7.3-3.6
			l25.5-30.4l113,127.3C390.3,428.2,321.7,468,244,468z M441.3,349.9L330.5,225l33.5-40l15.6,15c1.9,1.9,4.4,2.8,6.9,2.8
			c2.6,0,5.1-1,7.1-2.9l18.1-18.1l56.2,56.2c0.1,1.9,0.1,3.9,0.1,5.8C468,282.3,458.3,318.4,441.3,349.9L441.3,349.9z"/>
	</g>
</g>
<g>
</g>
<g>
</g>
<g>
</g>
<g>
</g>
<g>
</g>
<g>
</g>
<g>
</g>
<g>
</g>
<g>
</g>
<g>
</g>
<g>
</g>
<g>
</g>
<g>
</g>
<g>
</g>
<g>
</g>
</svg>
