<?xml version="1.0" encoding="iso-8859-1"?>
<!-- Generator: Adobe Illustrator 19.0.0, SVG Export Plug-In . SVG Version: 6.00 Build 0)  -->
<svg version="1.1" id="Layer_1" xmlns="http://www.w3.org/2000/svg" xmlns:xlink="http://www.w3.org/1999/xlink" x="0px" y="0px"
	 viewBox="0 0 504.8 504.8" style="enable-background:new 0 0 504.8 504.8;" xml:space="preserve">
<path style="fill:#FFC52F;" d="M345.2,313.4c41.2,0,79.6-16,108.8-45.2c60-60,60-157.6,0-217.2C424.8,21.8,386.4,5.8,345.2,5.8
	s-79.6,16-108.8,45.2c-58,58-60,151.2-5.6,211.6l11.2,11.2C270.4,299.4,306.8,313.4,345.2,313.4z M256,70.2
	c24-24,55.6-36.8,89.2-36.8c33.6,0,65.2,13.2,89.2,36.8c35.6,35.6,45.6,87.2,29.6,132v0.4c-6,16.8-16,32.4-29.2,46
	c-24,24-55.6,36.8-89.2,36.8c-33.6,0-65.2-13.2-89.2-36.8C206.8,199.8,206.8,119.4,256,70.2z"/>
<path style="fill:#54B265;" d="M380.8,179.4l12.4,12.4c0.8,0.8,0.8,2,0,2.8c-0.4,0.4-0.8,0.4-1.2,0.4s-1.2,0-1.2-0.4L377.2,181
	l-43.6-43.6L306,165l12.8,12.8c0.8,0.8,0.8,2,0,2.8c-0.4,0.4-0.8,0.4-1.2,0.4s-1.2,0-1.2-0.4l-28.4-28L233.2,207
	c6,14.4,14.8,27.6,26.4,39.2c23.2,23.2,53.6,35.6,86.4,35.6c32.8,0,63.2-12.8,86.4-35.6c12.8-12.8,22-27.6,28-43.6l-50.8-50.8
	L380.8,179.4z"/>
<path style="fill:#CDEEF9;" d="M286.8,147.4c0.4,0,1.2,0,1.2,0.4l14,14l29.2-29.2c0.8-0.8,2-0.8,2.8,0l43.6,43.6l29.2-29.2
	c0.8-0.8,2-0.8,2.8,0l50.8,50.8c14-42.4,4.4-91.2-29.6-124.8c-23.2-23.2-53.6-35.6-86.4-35.6S281.2,50.2,258,73
	c-34.8,34.8-44.4,86-28,129.6l54.8-54.8C286,147.8,286.4,147.4,286.8,147.4z M379.6,100.6c10,0,18,8,18,18s-8,18-18,18s-18-8-18-18
	S369.6,100.6,379.6,100.6z"/>
<path style="fill:#E9B526;" d="M217.2,251.8l-3.6,3.6c-8.8,8.8-8.8,23.6,0,32.4l3.2,3.2c8.8,8.8,23.6,8.8,32.4,0l3.6-3.6
	c-6.8-4.8-13.2-10.4-19.2-16.4C227.6,265,222,258.6,217.2,251.8z"/>
<path style="fill:#CCCCCC;" d="M242,273.8l-11.2-11.2c1.6,2,3.6,4,5.6,5.6C238.4,270.2,240,271.8,242,273.8z"/>
<path style="fill:#E8E3E3;" d="M214,293.8l-3.2-3.2c-1.6-1.6-2.8-2.8-3.6-4.4L176,317.4l11.2,11.2l31.2-31.2
	C216.8,296.2,215.2,295,214,293.8z"/>
<path style="fill:#EF934A;" d="M12.8,459c-9.2,9.2-9.2,23.6,0,32.8c4.4,4.4,10.4,6.8,16.4,6.8c6.4,0,12-2.4,16.4-6.8l144.8-154
	l-4.8-4.8l0,0l-14-14l0,0l-4.8-4.8L12.8,459z"/>
<polygon style="fill:#CCCCCC;" points="185.6,333 185.6,333 171.6,319 171.6,319 "/>
<path style="fill:#E07D46;" d="M379.6,132.2c7.6,0,14-6.4,14-14s-6.4-14-14-14s-14,6.4-14,14C365.6,126.2,372,132.2,379.6,132.2z"/>
<path d="M345.2,319.4c-88,0-159.6-71.6-159.6-159.6S257.2,0.2,345.2,0.2s159.6,71.6,159.6,159.6
	C504.8,247.8,433.2,319.4,345.2,319.4z M345.2,7.8c-83.6,0-151.6,68-151.6,151.6S261.6,311,345.2,311s151.6-68,151.6-151.6
	S428.8,7.8,345.2,7.8z"/>
<path d="M345.2,287.8c-70.8,0-128-57.6-128-128c0-70.8,57.6-128,128-128s128,57.6,128,128S415.6,287.8,345.2,287.8z M345.2,39.4
	c-66.4,0-120,54-120,120c0,66.4,54,120,120,120s120-54,120-120S411.2,39.4,345.2,39.4z"/>
<path d="M232.8,303.4c-7.6,0-14.8-2.8-20.4-8.4l-3.2-3.2c-11.2-11.2-11.2-29.6,0-40.8l5.2-5.2c1.6-1.6,4-1.6,5.6,0s1.6,4,0,5.6
	l-5.2,5.2c-8,8-8,21.2,0,29.6l3.2,3.2c4,4,9.2,6,14.8,6s10.8-2,14.8-6l5.2-5.2c1.6-1.6,4-1.6,5.6,0s1.6,4,0,5.6l-5.2,5.2
	C248,300.6,240.8,303.4,232.8,303.4z"/>
<path d="M187.2,335.4c-1.2,0-2-0.4-2.8-1.2l-14-14c-0.8-0.8-1.2-1.6-1.2-2.8s0.4-2,1.2-2.8l34-34c1.6-1.6,4-1.6,5.6,0s1.6,4,0,5.6
	l-31.2,31.2l8.4,8.4l31.2-31.2c1.6-1.6,4-1.6,5.6,0s1.6,4,0,5.6l-34,34C189.2,335,188,335.4,187.2,335.4z"/>
<path d="M29.2,504.6c-7.6,0-14.8-2.8-20.8-8.4c-11.2-11.2-11.2-30,0-41.2L164,308.6c1.6-1.6,4-1.6,5.6,0L196,335
	c1.6,1.6,1.6,4,0,5.6L50,495.8C44.4,501.4,36.8,504.6,29.2,504.6z M166.8,317L14.4,460.6c-8,8-8,21.6,0,30c8.4,8.4,21.6,8.4,30,0
	l143.2-152.4L166.8,317z"/>
<path d="M32,481.4c-1.2,0-2-0.4-2.8-1.2l-18.8-18.8c-1.6-1.6-1.6-4,0-5.6s4-1.6,5.6,0l18.8,18.8c1.6,1.6,1.6,4,0,5.6
	C34,481,33.2,481.4,32,481.4z"/>
<path d="M431.2,114.6c-1.2,0-2.8-0.8-3.6-2c-17.6-30.8-50.8-49.2-86.4-48c-2.4,0-4-1.6-4-4s1.6-4,4-4c38.4-1.6,74.4,18.4,93.6,52
	c1.2,2,0.4,4.4-1.6,5.6C432.4,114.2,431.6,114.6,431.2,114.6z"/>
<path d="M230.4,210.2c-1.2,0-2-0.4-2.8-1.2c-1.6-1.6-1.6-4,0-5.6l56.8-56.8c1.6-1.6,4-1.6,5.6,0s1.6,4,0,5.6L233.2,209
	C232.4,209.8,231.2,210.2,230.4,210.2z"/>
<path d="M316.4,183c-1.2,0-2-0.4-2.8-1.2L284,152.2c-1.6-1.6-1.6-4,0-5.6s4-1.6,5.6,0l29.6,29.6c1.6,1.6,1.6,4,0,5.6
	C318.4,182.6,317.6,183,316.4,183z"/>
<path d="M302.4,169c-1.2,0-2-0.4-2.8-1.2c-1.6-1.6-1.6-4,0-5.6l30.4-30.4c1.6-1.6,4-1.6,5.6,0s1.6,4,0,5.6l-30.4,30.4
	C304.4,168.6,303.2,169,302.4,169z"/>
<path d="M378,183.4c-1.2,0-2-0.4-2.8-1.2c-1.6-1.6-1.6-4,0-5.6l30.8-30.8c1.6-1.6,4-1.6,5.6,0s1.6,4,0,5.6l-30.8,30.8
	C380,183,378.8,183.4,378,183.4z"/>
<path d="M391.6,197c-1.2,0-2-0.4-2.8-1.2L330,137c-1.6-1.6-1.6-4,0-5.6s4-1.6,5.6,0l58.8,58.8c1.6,1.6,1.6,4,0,5.6
	C393.6,196.6,392.8,197,391.6,197z"/>
<path d="M462,205.8c-1.2,0-2-0.4-2.8-1.2L406,151.4c-1.6-1.6-1.6-4,0-5.6s4-1.6,5.6,0l53.2,53.2c1.6,1.6,1.6,4,0,5.6
	C464,205.4,462.8,205.8,462,205.8z"/>
<path d="M379.6,138.2c-10.8,0-20-8.8-20-20s8.8-20,20-20s20,8.8,20,20S390.8,138.2,379.6,138.2z M379.6,106.6c-6.4,0-12,5.2-12,12
	s5.2,12,12,12c6.4,0,12-5.2,12-12S386,106.6,379.6,106.6z"/>
<g>
</g>
<g>
</g>
<g>
</g>
<g>
</g>
<g>
</g>
<g>
</g>
<g>
</g>
<g>
</g>
<g>
</g>
<g>
</g>
<g>
</g>
<g>
</g>
<g>
</g>
<g>
</g>
<g>
</g>
</svg>
